<?xml version="1.0" encoding="UTF-8" standalone="no"?><svg xmlns="http://www.w3.org/2000/svg" xmlns:xlink="http://www.w3.org/1999/xlink" id="visual" version="1.1" viewBox="0 0 900 221.75"><path d="M0 201L21.5 200.2C43 199.3 86 197.7 128.8 203.5C171.7 209.3 214.3 222.7 257.2 221.7C300 220.7 343 205.3 385.8 192.8C428.7 180.3 471.3 170.7 514.2 164.3C557 158 600 155 642.8 156.5C685.7 158 728.3 164 771.2 170C814 176 857 182 878.5 185L900 188L900 0L878.5 0C857 0 814 0 771.2 0C728.3 0 685.7 0 642.8 0C600 0 557 0 514.2 0C471.3 0 428.7 0 385.8 0C343 0 300 0 257.2 0C214.3 0 171.7 0 128.8 0C86 0 43 0 21.5 0L0 0Z" fill="#ffffff"/><path d="M0 179L21.5 178.7C43 178.3 86 177.7 128.8 171.7C171.7 165.7 214.3 154.3 257.2 153.7C300 153 343 163 385.8 163.7C428.7 164.3 471.3 155.7 514.2 159.3C557 163 600 179 642.8 177.2C685.7 175.3 728.3 155.7 771.2 150.2C814 144.7 857 153.3 878.5 157.7L900 162L900 0L878.5 0C857 0 814 0 771.2 0C728.3 0 685.7 0 642.8 0C600 0 557 0 514.2 0C471.3 0 428.7 0 385.8 0C343 0 300 0 257.2 0C214.3 0 171.7 0 128.8 0C86 0 43 0 21.5 0L0 0Z" fill="#edcbff"/><path d="M0 111L21.5 113.7C43 116.3 86 121.7 128.8 118.7C171.7 115.7 214.3 104.3 257.2 104.5C300 104.7 343 116.3 385.8 120.8C428.7 125.3 471.3 122.7 514.2 122.2C557 121.7 600 123.3 642.8 124C685.7 124.7 728.3 124.3 771.2 128.3C814 132.3 857 140.7 878.5 144.8L900 149L900 0L878.5 0C857 0 814 0 771.2 0C728.3 0 685.7 0 642.8 0C600 0 557 0 514.2 0C471.3 0 428.7 0 385.8 0C343 0 300 0 257.2 0C214.3 0 171.7 0 128.8 0C86 0 43 0 21.5 0L0 0Z" fill="#d697ff"/><path d="M0 63L21.5 65.5C43 68 86 73 128.8 78.8C171.7 84.7 214.3 91.3 257.2 94.5C300 97.7 343 97.3 385.8 90.7C428.7 84 471.3 71 514.2 67.5C557 64 600 70 642.8 76.5C685.7 83 728.3 90 771.2 91.5C814 93 857 89 878.5 87L900 85L900 0L878.5 0C857 0 814 0 771.2 0C728.3 0 685.7 0 642.8 0C600 0 557 0 514.2 0C471.3 0 428.7 0 385.8 0C343 0 300 0 257.2 0C214.3 0 171.7 0 128.8 0C86 0 43 0 21.5 0L0 0Z" fill="#bb5fff"/><path d="M0 70L21.5 66.2C43 62.3 86 54.7 128.8 54.2C171.7 53.7 214.3 60.3 257.2 62.7C300 65 343 63 385.8 56.2C428.7 49.3 471.3 37.7 514.2 36.2C557 34.7 600 43.3 642.8 44C685.7 44.7 728.3 37.3 771.2 37.7C814 38 857 46 878.5 50L900 54L900 0L878.5 0C857 0 814 0 771.2 0C728.3 0 685.7 0 642.8 0C600 0 557 0 514.2 0C471.3 0 428.7 0 385.8 0C343 0 300 0 257.2 0C214.3 0 171.7 0 128.8 0C86 0 43 0 21.5 0L0 0Z" fill="#9800ff"/></svg>